<!-- icon666.com - MILLIONS vector ICONS FREE --><svg version="1.1" id="Capa_1" xmlns="http://www.w3.org/2000/svg" xmlns:xlink="http://www.w3.org/1999/xlink" x="0px" y="0px" viewBox="0 0 512 512" style="enable-background:new 0 0 512 512;" xml:space="preserve"><path style="fill:#415A87;" d="M53.894,411.667c-0.706,0-1.374-0.329-1.801-0.891C19.413,367.789,0,314.165,0,256 C0,114.615,114.615,0,256,0s256,114.615,256,256c0,57.171-18.754,109.953-50.428,152.561c-1.462,1.967-3.786,3.105-6.236,3.105 L53.894,411.667L53.894,411.667z M78.033,440C124.1,484.566,186.842,512,256,512s131.9-27.434,177.967-72H78.033z"></path><path style="fill:#414669;" d="M82.021,430h347.297c5.461,0,8.125,6.652,4.191,10.439c-11.372,10.946-23.752,20.851-36.991,29.561 H115.482c-13.425-8.833-25.963-18.899-37.464-30.032C74.271,436.341,76.805,430,82.021,430z"></path><path style="fill:#FF784B;" d="M452,150H62c-5.523,0-10-4.477-10-10V80c0-5.523,4.477-10,10-10h390c5.523,0,10,4.477,10,10v60 C462,145.523,457.523,150,452,150z"></path><path style="fill:#E1FFFA;" d="M52,120h410v287.992c-8.452,11.436-17.834,22.141-28.033,32.008H78.033 c-9.402-9.096-18.108-18.905-26.033-29.342C52,410.658,52,120,52,120z"></path><path style="fill:#C8FFFA;" d="M90,440H78.033c-9.402-9.096-18.108-18.905-26.033-29.342V120h38V440z"></path><path style="fill:#FF5019;" d="M92,95.003c0,5.523-4.477,10-10,10s-10-4.477-10-10s4.477-10,10-10S92,89.48,92,95.003z M142,85.003 c-5.523,0-10,4.477-10,10s4.477,10,10,10s10-4.477,10-10C152,89.48,147.523,85.003,142,85.003z M112,85.003c-5.523,0-10,4.477-10,10 s4.477,10,10,10s10-4.477,10-10C122,89.48,117.523,85.003,112,85.003z"></path><path style="fill:#8CEBEB;" d="M342,345v10c0,2.761-2.239,5-5,5H175c-2.761,0-5-2.239-5-5v-10c0-2.761,2.239-5,5-5h162 C339.761,340,342,342.239,342,345z M381,250H131c-5.523,0-10,4.477-10,10v20c0,5.523,4.477,10,10,10h250c5.523,0,10-4.477,10-10v-20 C391,254.477,386.523,250,381,250z"></path><path style="fill:#64D2CD;" d="M392,260v20c0,1.556-0.366,3.023-1,4.337V280c0-5.523-4.477-10-10-10H131 c-3.967,0-7.384,2.315-9,5.663V260c0-5.523,4.477-10,10-10h250C387.523,250,392,254.477,392,260z M287,380h-62c-2.761,0-5,2.239-5,5 v10c0,2.761,2.239,5,5,5h62c2.761,0,5-2.239,5-5v-10C292,382.239,289.761,380,287,380z"></path><path style="fill:#FFF573;" d="M321.312,290h-70.52L112.811,152.019c-3.905-3.905-3.905-10.237,0-14.142L218.877,31.811 c3.905-3.905,10.237-3.905,14.142,0l166.17,166.17c3.905,3.905,3.905,10.237,0,14.142L321.312,290z"></path><path style="fill:#FFE13C;" d="M399.189,197.981c0.488,0.488,0.916,1.014,1.281,1.569 C400.104,198.995,399.677,198.469,399.189,197.981z M400.47,210.554c-0.366,0.554-0.793,1.081-1.281,1.569 C399.677,211.635,400.104,211.109,400.47,210.554z M400.47,199.55c0.268,0.406,0.492,0.831,0.695,1.264 C400.962,200.381,400.739,199.956,400.47,199.55z M255.177,163.123L197.664,53.024l-14.142,14.142l57.514,110.098 c2.837,5.431,7.269,9.863,12.7,12.7l110.098,57.514l14.142-14.142l-110.098-57.514C262.447,172.985,258.015,168.553,255.177,163.123 z"></path></svg>